<svg xmlns="http://www.w3.org/2000/svg" width="112" height="100" viewBox="0 0 112 100">
  <defs>
    <linearGradient id="storm" x1="0" y1="0" x2="1" y2="1">
      <stop stop-color="#8876be"/>
      <stop offset="1" stop-color="#514c83"/>
    </linearGradient>
  </defs>
  <g stroke="#26364d" stroke-width="3.5" stroke-linecap="round" stroke-linejoin="round">
    <path d="m27 31-10-20 21 11M82 30 94 10 71 21" fill="#65588f"/>
    <path d="M20 52c0-24 15-39 37-39 21 0 37 14 37 38 12 4 14 19 3 26-5 16-75 16-81 0C3 72 7 56 20 52z" fill="url(#storm)"/>
    <path d="M25 35c13-13 45-18 62 2" fill="none" stroke="#a797d0" stroke-width="4" opacity=".65"/>
    <path d="M30 47c6-6 13-7 20-1M64 46c7-6 14-5 20 1" fill="none"/>
    <path d="m33 50 17 4M81 50l-17 4" fill="none" stroke-width="2.5"/>
    <ellipse cx="43" cy="55" rx="5" ry="6" fill="#ffe45f"/>
    <ellipse cx="72" cy="55" rx="5" ry="6" fill="#ffe45f"/>
    <circle cx="44" cy="54" r="2" fill="#fff" stroke="none"/>
    <circle cx="73" cy="54" r="2" fill="#fff" stroke="none"/>
    <path d="M45 70c8-6 17-6 25 0-3 9-20 9-25 0z" fill="#27354d"/>
    <path d="m51 70 3 6 4-6 4 6 3-6" fill="#f5eee2" stroke-width="1.5"/>
    <path d="m18 80-11 9M96 79l10 10" fill="none"/>
    <path d="m54 90-6 9 10-3 5 4 4-10" fill="#ffe45f"/>
  </g>
</svg>
